<svg id="Capa_1" enable-background="new 0 0 490.278 490.278" height="512" viewBox="0 0 490.278 490.278" width="512" xmlns="http://www.w3.org/2000/svg"><g><path d="m86.15 0h317.978c10.381 0 18.796 8.415 18.796 18.796v452.686c0 10.381-8.415 18.796-18.796 18.796h-317.978c-10.381 0-18.796-8.415-18.796-18.796v-452.686c0-10.381 8.415-18.796 18.796-18.796z" fill="#62667c"/><path d="m97.373 33.386h295.526v110.655h-295.526z" fill="#69b0ee"/><g fill="#dbd8dd"><path d="m103.115 183.766h35.507c3.178 0 5.753 2.576 5.753 5.753v35.507c0 3.178-2.576 5.753-5.753 5.753h-35.507c-3.178 0-5.753-2.576-5.753-5.753v-35.507c0-3.177 2.575-5.753 5.753-5.753z"/><path d="m185.96 183.766h35.507c3.178 0 5.753 2.576 5.753 5.753v35.507c0 3.178-2.576 5.753-5.753 5.753h-35.507c-3.178 0-5.753-2.576-5.753-5.753v-35.507c0-3.177 2.576-5.753 5.753-5.753z"/><path d="m268.8 183.766h35.507c3.178 0 5.753 2.576 5.753 5.753v35.507c0 3.178-2.576 5.753-5.753 5.753h-35.507c-3.178 0-5.753-2.576-5.753-5.753v-35.507c-.001-3.177 2.575-5.753 5.753-5.753z"/></g><path d="m351.639 183.766h35.507c3.178 0 5.753 2.576 5.753 5.753v35.507c0 3.178-2.576 5.753-5.753 5.753h-35.507c-3.177 0-5.753-2.576-5.753-5.753v-35.507c-.001-3.177 2.575-5.753 5.753-5.753z" fill="#2cbfae"/><path d="m103.115 258.17h35.507c3.178 0 5.753 2.576 5.753 5.753v35.507c0 3.177-2.576 5.753-5.753 5.753h-35.507c-3.178 0-5.753-2.576-5.753-5.753v-35.507c0-3.177 2.575-5.753 5.753-5.753z" fill="#dbd8dd"/><path d="m185.96 258.17h35.507c3.178 0 5.753 2.576 5.753 5.753v35.507c0 3.177-2.576 5.753-5.753 5.753h-35.507c-3.178 0-5.753-2.576-5.753-5.753v-35.507c0-3.177 2.576-5.753 5.753-5.753z" fill="#dbd8dd"/><path d="m268.8 258.17h35.507c3.178 0 5.753 2.576 5.753 5.753v35.507c0 3.177-2.576 5.753-5.753 5.753h-35.507c-3.178 0-5.753-2.576-5.753-5.753v-35.507c-.001-3.177 2.575-5.753 5.753-5.753z" fill="#dbd8dd"/><path d="m351.639 258.17h35.507c3.178 0 5.753 2.576 5.753 5.753v35.507c0 3.177-2.576 5.753-5.753 5.753h-35.507c-3.177 0-5.753-2.576-5.753-5.753v-35.507c-.001-3.177 2.575-5.753 5.753-5.753z" fill="#f6c863"/><path d="m103.115 332.574h35.507c3.178 0 5.753 2.576 5.753 5.753v35.507c0 3.178-2.576 5.753-5.753 5.753h-35.507c-3.178 0-5.753-2.576-5.753-5.753v-35.507c0-3.177 2.575-5.753 5.753-5.753z" fill="#dbd8dd"/><path d="m185.96 332.574h35.507c3.178 0 5.753 2.576 5.753 5.753v35.507c0 3.178-2.576 5.753-5.753 5.753h-35.507c-3.178 0-5.753-2.576-5.753-5.753v-35.507c0-3.177 2.576-5.753 5.753-5.753z" fill="#dbd8dd"/><path d="m268.8 332.574h35.507c3.178 0 5.753 2.576 5.753 5.753v35.507c0 3.178-2.576 5.753-5.753 5.753h-35.507c-3.178 0-5.753-2.576-5.753-5.753v-35.507c-.001-3.177 2.575-5.753 5.753-5.753z" fill="#dbd8dd"/><path d="m351.639 332.574h35.507c3.178 0 5.753 2.576 5.753 5.753v109.911c0 3.178-2.576 5.753-5.753 5.753h-35.507c-3.177 0-5.753-2.576-5.753-5.753v-109.91c-.001-3.178 2.575-5.754 5.753-5.754z" fill="#ef5261"/><path d="m103.115 406.978h35.507c3.178 0 5.753 2.576 5.753 5.753v35.507c0 3.178-2.576 5.753-5.753 5.753h-35.507c-3.178 0-5.753-2.576-5.753-5.753v-35.507c0-3.177 2.575-5.753 5.753-5.753z" fill="#dbd8dd"/><path d="m185.96 406.978h35.507c3.178 0 5.753 2.576 5.753 5.753v35.507c0 3.178-2.576 5.753-5.753 5.753h-35.507c-3.178 0-5.753-2.576-5.753-5.753v-35.507c0-3.177 2.576-5.753 5.753-5.753z" fill="#dbd8dd"/><path d="m268.8 406.978h35.507c3.178 0 5.753 2.576 5.753 5.753v35.507c0 3.178-2.576 5.753-5.753 5.753h-35.507c-3.178 0-5.753-2.576-5.753-5.753v-35.507c-.001-3.177 2.575-5.753 5.753-5.753z" fill="#dbd8dd"/></g></svg>