<svg height="511pt" viewBox="0 1 511 511.9995" width="511pt" xmlns="http://www.w3.org/2000/svg"><path d="m199.925781 10s-50.117187 37.898438-50.117187 84.652344c0 6.253906.898437 12.351562 2.449218 18.222656 21.082032 9.753906 38.554688 25.148438 49.613282 36.484375l47.730468-47.011719c.292969-2.535156.445313-5.101562.445313-7.695312 0-46.753906-50.121094-84.652344-50.121094-84.652344zm0 0" fill="#33cdab"/><path d="m126.988281 223.113281 74.882813-73.753906c-17.449219-17.890625-50.878906-45.886719-89.253906-45.886719-56.398438 0-102.117188 60.460938-102.117188 60.460938s45.71875 60.457031 102.117188 60.457031c4.875 0 9.675781-.453125 14.371093-1.277344zm0 0" fill="#33cdab"/><path d="m447.480469 215.4375v-95.371094h-59.210938v37.050782" fill="#ccab8f"/><path d="m290.113281 140.160156 146.667969 144.453125h56.535156c8.199219 0 12.273438-9.945312 6.433594-15.699219l-209.636719-206.46875-209.632812 206.46875c-5.84375 5.753907-1.769531 15.699219 6.433593 15.699219h56.53125zm0 0" fill="#f37779"/><path d="m452.980469 346.332031v-61.71875h-16.199219l-146.667969-144.453125-146.667969 144.453125h-16.195312v217.386719h325.730469v-63" fill="#fff"/><path d="m452.980469 399c-.648438 0-1.308594-.070312-1.949219-.199219-.640625-.121093-1.269531-.320312-1.882812-.570312-.597657-.25-1.179688-.5625-1.71875-.921875-.550782-.359375-1.058594-.777344-1.519532-1.238282-.460937-.460937-.878906-.972656-1.25-1.519531-.359375-.542969-.660156-1.121093-.910156-1.722656-.25-.609375-.449219-1.238281-.570312-1.878906-.128907-.640625-.199219-1.300781-.199219-1.949219 0-.652344.070312-1.308594.199219-1.949219.121093-.640625.320312-1.269531.570312-1.871093.25-.609376.550781-1.191407.910156-1.730469.371094-.550781.789063-1.058594 1.25-1.519531.460938-.460938.96875-.878907 1.519532-1.238282.539062-.363281 1.121093-.671875 1.71875-.921875.613281-.25 1.242187-.449219 1.882812-.570312 1.289062-.257813 2.609375-.257813 3.898438 0 .640624.121093 1.273437.320312 1.871093.570312.609375.25 1.191407.558594 1.730469.921875.550781.359375 1.058594.777344 1.519531 1.238282.460938.460937.878907.96875 1.238281 1.519531.359376.539062.671876 1.121093.921876 1.730469.25.601562.449218 1.230468.570312 1.871093.128906.640625.199219 1.296875.199219 1.949219 0 .648438-.070313 1.308594-.199219 1.949219-.121094.640625-.320312 1.269531-.570312 1.878906-.25.601563-.5625 1.179687-.921876 1.722656-.359374.546875-.777343 1.058594-1.238281 1.519531-.460937.460938-.96875.878907-1.519531 1.238282-.539062.359375-1.121094.671875-1.730469.921875-.601562.25-1.230469.449219-1.871093.570312-.640626.128907-1.300782.199219-1.949219.199219zm0 0"/><path d="m327.722656 339.648438h79.796875v162.351562h-79.796875zm0 0" fill="#ccab8f"/><path d="m167.199219 339.648438h112.824219v88.335937h-112.824219zm0 0" fill="#8ed8f8"/><path d="m280.023438 437.980469h-112.824219c-5.519531 0-10-4.476563-10-10v-88.332031c0-5.523438 4.480469-10 10-10h112.824219c5.523437 0 10 4.476562 10 10v88.332031c0 5.523437-4.476563 10-10 10zm-102.824219-20h92.824219v-68.332031h-92.824219zm0 0"/><path d="m290.113281 204.089844-70.746093 69.679687h141.496093zm0 0" fill="#2da7df"/><path d="m360.863281 283.769531h-141.496093c-4.058594 0-7.714844-2.453125-9.253907-6.207031-1.539062-3.753906-.652343-8.066406 2.234375-10.914062l70.75-69.683594c3.890625-3.832032 10.140625-3.832032 14.03125 0l70.75 69.683594c2.890625 2.847656 3.773438 7.160156 2.234375 10.914062-1.535156 3.753906-5.191406 6.207031-9.25 6.207031zm-117.09375-20h92.6875l-46.34375-45.644531zm0 0"/><path d="m506.765625 261.792969-49.285156-48.539063v-93.1875c0-5.523437-4.476563-10-10-10h-59.210938c-5.523437 0-10 4.476563-10 10v15.167969l-81.140625-79.914063c-3.890625-3.832031-10.140625-3.832031-14.03125 0l-24.542968 24.171876c-8.507813-43.652344-50.613282-75.96875-52.597657-77.46875-3.566406-2.699219-8.492187-2.699219-12.0625 0-2.207031 1.671874-54.089843 41.488281-54.089843 92.628906 0 1.007812.023437 1.972656.0625 2.902344-8.6875-2.5625-17.816407-4.082032-27.253907-4.082032-60.671875 0-108.101562 61.796875-110.089843 64.429688-2.699219 3.566406-2.699219 8.492187 0 12.0625 1.871093 2.472656 43.929687 57.277344 99.402343 63.792968l-28.464843 28.03125c-5.5625 5.484376-7.246094 13.695313-4.285157 20.921876 2.960938 7.230468 9.925781 11.902343 17.734375 11.902343h30.335938v207.386719c0 5.523438 4.476562 10 10 10h325.730468c5.523438 0 10-4.476562 10-10v-63c0-5.523438-4.476562-10-10-10-5.519531 0-10 4.476562-10 10v53h-25.457031v-152.351562c0-5.523438-4.476562-10-10-10h-79.800781c-5.523438 0-10 4.476562-10 10v152.351562h-180.46875v-197.386719h6.199219c3.261719 0 5.671875-1.550781 7.015625-2.875l139.652344-137.542969 139.648437 137.542969c1.871094 1.84375 4.390625 2.875 7.015625 2.875h6.199219v51.71875c0 5.523438 4.480469 10 10 10 5.523437 0 10-4.476562 10-10v-51.71875h30.335937c7.8125 0 14.773438-4.671875 17.734375-11.898437 2.960938-7.230469 1.28125-15.441406-4.285156-20.921875zm-169.042969 87.855469h59.800782v142.351562h-59.800782zm60.546875-219.582032h39.210938v63.488282l-39.210938-38.625zm-238.460937-35.414062c0-31.96875 27.609375-60.355469 40.117187-71.578125 12.519531 11.230469 40.121094 39.617187 40.121094 71.578125 0 1.4375-.039063 1.757812-.207031 3.105468-.007813.0625-.015625.125-.023438.191407l-29.890625 29.4375v-49.160157c0-5.519531-4.476562-10-10-10-5.523437 0-10 4.480469-10 10v46.777344c-8.246093-6.617187-17.867187-13.265625-28.527343-18.738281-1.113282-4.425781-1.589844-7.359375-1.589844-11.613281zm-47.195313 119.738281c-40.585937 0-76.296875-35.90625-89.105469-50.46875 12.785157-14.574219 48.394532-50.449219 89.105469-50.449219 30.34375 0 57.96875 20.125 74.972657 35.917969l-4.75 4.679687c-.542969-.089843-1.101563-.136718-1.667969-.136718h-38.367188l-28.0625-28.0625c-3.90625-3.90625-10.238281-3.90625-14.144531 0-3.902344 3.90625-3.902344 10.238281 0 14.140625l13.921875 13.921875h-37.839844c-5.523437 0-10 4.476562-10 10 0 5.523437 4.476563 10 10 10h85.992188l-40.40625 39.792968c-3.25.441407-6.484375.664063-9.648438.664063zm328.265625 60.222656-143.75-141.578125c-1.945312-1.917968-4.480468-2.875-7.015625-2.875-2.140625 0-4.277343.679688-6.0625 2.046875-.199219.152344-144.699219 142.40625-144.699219 142.40625h-50.402343l201.164062-198.128906 201.167969 198.128906zm0 0"/></svg>