<?xml version="1.0" encoding="UTF-8" standalone="no"?>
<!-- Generator: Adobe Illustrator 19.0.0, SVG Export Plug-In . SVG Version: 6.00 Build 0)  -->

<svg
   xmlns:dc="http://purl.org/dc/elements/1.1/"
   xmlns:cc="http://creativecommons.org/ns#"
   xmlns:rdf="http://www.w3.org/1999/02/22-rdf-syntax-ns#"
   xmlns:svg="http://www.w3.org/2000/svg"
   xmlns="http://www.w3.org/2000/svg"
   xmlns:sodipodi="http://sodipodi.sourceforge.net/DTD/sodipodi-0.dtd"
   xmlns:inkscape="http://www.inkscape.org/namespaces/inkscape"
   version="1.1"
   id="Capa_1"
   x="0px"
   y="0px"
   viewBox="0 0 100 100"
   xml:space="preserve"
   sodipodi:docname="bitcoin.svg"
   width="100"
   height="100"
   inkscape:version="0.92.5 (2060ec1f9f, 2020-04-08)"><metadata
   id="metadata49"><rdf:RDF><cc:Work
       rdf:about=""><dc:format>image/svg+xml</dc:format><dc:type
         rdf:resource="http://purl.org/dc/dcmitype/StillImage" /><dc:title /></cc:Work></rdf:RDF></metadata><defs
   id="defs47" /><sodipodi:namedview
   pagecolor="#ffffff"
   bordercolor="#666666"
   borderopacity="1"
   objecttolerance="10"
   gridtolerance="10"
   guidetolerance="10"
   inkscape:pageopacity="0"
   inkscape:pageshadow="2"
   inkscape:window-width="1920"
   inkscape:window-height="1031"
   id="namedview45"
   showgrid="false"
   inkscape:zoom="3.6875"
   inkscape:cx="89.680593"
   inkscape:cy="42.515192"
   inkscape:window-x="0"
   inkscape:window-y="0"
   inkscape:window-maximized="1"
   inkscape:current-layer="Capa_1" />
<g
   id="g6"
   transform="matrix(0.1949154,0,0,0.1949154,0.10166663,0.10166663)">
	<g
   id="g4">
		<path
   d="M 256.198,0 C 114.804,-0.119 0.119,114.408 0,255.802 -0.119,397.196 114.408,511.881 255.802,512 397.177,511.881 511.782,397.375 512,256 512,114.685 397.513,0.119 256.198,0 Z m -0.396,469.4 C 137.947,469.4 42.403,373.855 42.403,256 42.403,138.145 137.947,42.601 255.802,42.601 373.617,42.72 469.082,138.185 469.201,256 c 0,117.855 -95.544,213.4 -213.399,213.4 z"
   id="path2"
   inkscape:connector-curvature="0" />
	</g>
</g>
<g
   id="g12"
   transform="matrix(0.1949154,0,0,0.1949154,-0.01421961,0.42979768)">
	<g
   id="g10">
		<path
   d="m 324.954,243.517 c 17.12,-9.65 26.373,-28.968 23.183,-48.347 -3.963,-29.919 -39.628,-41.214 -67.765,-43.591 v -44.978 h -27.74 v 44.582 h -18.625 v -44.582 h -27.74 v 44.582 H 150.39 v 28.731 h 20.805 c 9.313,0 13.87,2.774 13.87,10.303 V 313.66 c 0,10.303 -5.152,13.474 -10.7,13.474 h -21.201 v 29.325 h 53.895 v 45.573 h 27.938 v -45.573 h 18.625 v 45.573 h 27.146 v -45.573 h 5.944 c 57.065,0 76.087,-27.938 76.087,-65.981 -0.456,-22.431 -16.01,-41.73 -37.845,-46.961 z m -90.948,-61.82 h 19.814 c 13.87,0 41.214,2.378 41.214,24.966 0.951,14.742 -9.729,27.661 -24.372,29.523 h -36.656 c 0,0 0,-54.489 0,-54.489 z m 30.712,142.662 v -0.198 h -30.712 v -59.443 h 35.666 c 8.322,0 39.628,2.774 39.628,24.966 0,22.192 -14.86,34.675 -44.582,34.675 z"
   id="path8"
   inkscape:connector-curvature="0" />
	</g>
</g>
<g
   id="g14"
   transform="translate(0,-412)">
</g>
<g
   id="g16"
   transform="translate(0,-412)">
</g>
<g
   id="g18"
   transform="translate(0,-412)">
</g>
<g
   id="g20"
   transform="translate(0,-412)">
</g>
<g
   id="g22"
   transform="translate(0,-412)">
</g>
<g
   id="g24"
   transform="translate(0,-412)">
</g>
<g
   id="g26"
   transform="translate(0,-412)">
</g>
<g
   id="g28"
   transform="translate(0,-412)">
</g>
<g
   id="g30"
   transform="translate(0,-412)">
</g>
<g
   id="g32"
   transform="translate(0,-412)">
</g>
<g
   id="g34"
   transform="translate(0,-412)">
</g>
<g
   id="g36"
   transform="translate(0,-412)">
</g>
<g
   id="g38"
   transform="translate(0,-412)">
</g>
<g
   id="g40"
   transform="translate(0,-412)">
</g>
<g
   id="g42"
   transform="translate(0,-412)">
</g>
</svg>