<?xml version="1.0" encoding="UTF-8" standalone="no"?>
<svg
   xmlns:dc="http://purl.org/dc/elements/1.1/"
   xmlns:cc="http://creativecommons.org/ns#"
   xmlns:rdf="http://www.w3.org/1999/02/22-rdf-syntax-ns#"
   xmlns:svg="http://www.w3.org/2000/svg"
   xmlns="http://www.w3.org/2000/svg"
   xmlns:sodipodi="http://sodipodi.sourceforge.net/DTD/sodipodi-0.dtd"
   xmlns:inkscape="http://www.inkscape.org/namespaces/inkscape"
   viewBox="0 0 12.5 12.5"
   width="100"
   height="100"
   version="1.1"
   id="svg25"
   sodipodi:docname="calculadora.svg"
   inkscape:version="0.92.5 (2060ec1f9f, 2020-04-08)">
  <metadata
     id="metadata31">
    <rdf:RDF>
      <cc:Work
         rdf:about="">
        <dc:format>image/svg+xml</dc:format>
        <dc:type
           rdf:resource="http://purl.org/dc/dcmitype/StillImage" />
        <dc:title></dc:title>
      </cc:Work>
    </rdf:RDF>
  </metadata>
  <defs
     id="defs29" />
  <sodipodi:namedview
     pagecolor="#ffffff"
     bordercolor="#666666"
     borderopacity="1"
     objecttolerance="10"
     gridtolerance="10"
     guidetolerance="10"
     inkscape:pageopacity="0"
     inkscape:pageshadow="2"
     inkscape:window-width="1920"
     inkscape:window-height="1031"
     id="namedview27"
     showgrid="false"
     inkscape:zoom="7.375"
     inkscape:cx="26.563176"
     inkscape:cy="52.830401"
     inkscape:window-x="0"
     inkscape:window-y="0"
     inkscape:window-maximized="1"
     inkscape:current-layer="svg25" />
  <g
     id="Calculator"
     transform="matrix(0.19829987,0,0,0.19829987,-0.09559584,-0.09559584)">
    <path
       d="M 49,62 H 15 A 7.008,7.008 0 0 1 8,55 V 9 a 7.008,7.008 0 0 1 7,-7 h 34 a 7.008,7.008 0 0 1 7,7 v 46 a 7.008,7.008 0 0 1 -7,7 z M 15,4 a 5.006,5.006 0 0 0 -5,5 v 46 a 5.006,5.006 0 0 0 5,5 h 34 a 5.006,5.006 0 0 0 5,-5 V 9 A 5.006,5.006 0 0 0 49,4 Z"
       id="path2"
       inkscape:connector-curvature="0" />
    <path
       d="m 35,58 h -6 a 3,3 0 0 1 -3,-3 v -4 a 3,3 0 0 1 3,-3 h 6 a 3,3 0 0 1 3,3 v 4 a 3,3 0 0 1 -3,3 z m -6,-8 a 1,1 0 0 0 -1,1 v 4 a 1,1 0 0 0 1,1 h 6 a 1,1 0 0 0 1,-1 v -4 a 1,1 0 0 0 -1,-1 z"
       id="path4"
       inkscape:connector-curvature="0" />
    <path
       d="m 21,58 h -6 a 3,3 0 0 1 -3,-3 v -4 a 3,3 0 0 1 3,-3 h 6 a 3,3 0 0 1 3,3 v 4 a 3,3 0 0 1 -3,3 z m -6,-8 a 1,1 0 0 0 -1,1 v 4 a 1,1 0 0 0 1,1 h 6 a 1,1 0 0 0 1,-1 v -4 a 1,1 0 0 0 -1,-1 z"
       id="path6"
       inkscape:connector-curvature="0" />
    <path
       d="M 49,58 H 43 A 3,3 0 0 1 40,55 V 39 a 3,3 0 0 1 3,-3 h 6 a 3,3 0 0 1 3,3 v 16 a 3,3 0 0 1 -3,3 z M 43,38 a 1,1 0 0 0 -1,1 v 16 a 1,1 0 0 0 1,1 h 6 a 1,1 0 0 0 1,-1 V 39 a 1,1 0 0 0 -1,-1 z"
       id="path8"
       inkscape:connector-curvature="0" />
    <path
       d="m 35,46 h -6 a 3,3 0 0 1 -3,-3 v -4 a 3,3 0 0 1 3,-3 h 6 a 3,3 0 0 1 3,3 v 4 a 3,3 0 0 1 -3,3 z m -6,-8 a 1,1 0 0 0 -1,1 v 4 a 1,1 0 0 0 1,1 h 6 a 1,1 0 0 0 1,-1 v -4 a 1,1 0 0 0 -1,-1 z"
       id="path10"
       inkscape:connector-curvature="0" />
    <path
       d="m 21,46 h -6 a 3,3 0 0 1 -3,-3 v -4 a 3,3 0 0 1 3,-3 h 6 a 3,3 0 0 1 3,3 v 4 a 3,3 0 0 1 -3,3 z m -6,-8 a 1,1 0 0 0 -1,1 v 4 a 1,1 0 0 0 1,1 h 6 a 1,1 0 0 0 1,-1 v -4 a 1,1 0 0 0 -1,-1 z"
       id="path12"
       inkscape:connector-curvature="0" />
    <path
       d="m 35,34 h -6 a 3,3 0 0 1 -3,-3 v -4 a 3,3 0 0 1 3,-3 h 6 a 3,3 0 0 1 3,3 v 4 a 3,3 0 0 1 -3,3 z m -6,-8 a 1,1 0 0 0 -1,1 v 4 a 1,1 0 0 0 1,1 h 6 a 1,1 0 0 0 1,-1 v -4 a 1,1 0 0 0 -1,-1 z"
       id="path14"
       inkscape:connector-curvature="0" />
    <path
       d="m 21,34 h -6 a 3,3 0 0 1 -3,-3 v -4 a 3,3 0 0 1 3,-3 h 6 a 3,3 0 0 1 3,3 v 4 a 3,3 0 0 1 -3,3 z m -6,-8 a 1,1 0 0 0 -1,1 v 4 a 1,1 0 0 0 1,1 h 6 a 1,1 0 0 0 1,-1 v -4 a 1,1 0 0 0 -1,-1 z"
       id="path16"
       inkscape:connector-curvature="0" />
    <path
       d="m 49,34 h -6 a 3,3 0 0 1 -3,-3 v -4 a 3,3 0 0 1 3,-3 h 6 a 3,3 0 0 1 3,3 v 4 a 3,3 0 0 1 -3,3 z m -6,-8 a 1,1 0 0 0 -1,1 v 4 a 1,1 0 0 0 1,1 h 6 a 1,1 0 0 0 1,-1 v -4 a 1,1 0 0 0 -1,-1 z"
       id="path18"
       inkscape:connector-curvature="0" />
    <path
       d="M 49,20 H 15 A 3,3 0 0 1 12,17 V 9 a 3,3 0 0 1 3,-3 h 34 a 3,3 0 0 1 3,3 v 8 a 3,3 0 0 1 -3,3 z M 15,8 a 1,1 0 0 0 -1,1 v 8 a 1,1 0 0 0 1,1 h 34 a 1,1 0 0 0 1,-1 V 9 A 1,1 0 0 0 49,8 Z"
       id="path20"
       inkscape:connector-curvature="0" />
    <path
       d="m 46,17 a 3,3 0 0 1 -3,-3 v -2 a 3,3 0 0 1 6,0 v 2 a 3,3 0 0 1 -3,3 z m 0,-6 a 1,1 0 0 0 -1,1 v 2 a 1,1 0 0 0 2,0 v -2 a 1,1 0 0 0 -1,-1 z"
       id="path22"
       inkscape:connector-curvature="0" />
  </g>
</svg>
