<?xml version="1.0" encoding="UTF-8" standalone="no"?>
<svg
   xmlns:dc="http://purl.org/dc/elements/1.1/"
   xmlns:cc="http://creativecommons.org/ns#"
   xmlns:rdf="http://www.w3.org/1999/02/22-rdf-syntax-ns#"
   xmlns:svg="http://www.w3.org/2000/svg"
   xmlns="http://www.w3.org/2000/svg"
   xmlns:sodipodi="http://sodipodi.sourceforge.net/DTD/sodipodi-0.dtd"
   xmlns:inkscape="http://www.inkscape.org/namespaces/inkscape"
   height="100pt"
   viewBox="0 0 100.00287 100"
   width="100pt"
   version="1.1"
   id="svg6"
   sodipodi:docname="clima.svg"
   inkscape:version="0.92.5 (2060ec1f9f, 2020-04-08)">
  <metadata
     id="metadata12">
    <rdf:RDF>
      <cc:Work
         rdf:about="">
        <dc:format>image/svg+xml</dc:format>
        <dc:type
           rdf:resource="http://purl.org/dc/dcmitype/StillImage" />
        <dc:title></dc:title>
      </cc:Work>
    </rdf:RDF>
  </metadata>
  <defs
     id="defs10" />
  <sodipodi:namedview
     pagecolor="#ffffff"
     bordercolor="#666666"
     borderopacity="1"
     objecttolerance="10"
     gridtolerance="10"
     guidetolerance="10"
     inkscape:pageopacity="0"
     inkscape:pageshadow="2"
     inkscape:window-width="1920"
     inkscape:window-height="1031"
     id="namedview8"
     showgrid="false"
     inkscape:zoom="6.36"
     inkscape:cx="45.361635"
     inkscape:cy="66.666667"
     inkscape:window-x="0"
     inkscape:window-y="0"
     inkscape:window-maximized="1"
     inkscape:current-layer="svg6" />
  <path
     d="m 48.442291,48.440856 h 3.118292 v 3.118292 h -3.118292 z m 0,0"
     id="path2"
     inkscape:connector-curvature="0"
     style="stroke-width:0.19489326" />
  <path
     d="m 95.181022,35.610705 c -0.79556,-0.773482 -2.274771,-2.213864 -2.299892,-2.758195 0.0236,-0.547377 1.50281,-1.986237 2.29837,-2.761242 1.774593,-1.725871 3.607807,-3.511124 3.057388,-5.5674 -0.565649,-2.119464 -3.102305,-2.759718 -5.55522,-3.378658 -1.026236,-0.258842 -2.93558,-0.742268 -3.2401,-1.155655 -0.22763,-0.484949 0.316701,-2.417894 0.608279,-3.456311 0.679842,-2.412564 1.381764,-4.905067 -0.148454,-6.432999 C 88.371939,8.5685051 85.877913,9.2734711 83.468394,9.9517911 82.428455,10.244893 80.501602,10.789224 80.024265,10.569207 79.600221,10.257074 79.116794,8.3477281 78.85795,7.3214942 78.239012,4.8670573 77.598757,2.3303989 75.47777,1.7647524 73.41845,1.2204214 71.637765,3.0498298 69.910372,4.8221403 69.136889,5.6177004 67.696505,7.096909 67.152174,7.1220327 66.604799,7.098433 65.165939,5.6192225 64.390933,4.8236624 62.665063,3.0498298 60.878288,1.214331 58.823534,1.7662745 56.70407,2.331921 56.063814,4.8693415 55.444876,7.3214942 55.186035,8.3477281 54.702608,10.257074 54.28922,10.561594 c -0.481903,0.229152 -2.417895,-0.316701 -3.456309,-0.6082809 -2.411044,-0.681364 -4.905068,-1.384808 -6.433,0.1484539 -1.530218,1.529456 -0.826774,4.021958 -0.148454,6.433 0.2931,1.039938 0.837431,2.971362 0.617416,3.44413 -0.312135,0.424045 -2.221479,0.907471 -3.247715,1.166313 -1.923808,0.486473 -3.88416,0.995784 -4.920292,2.210822 -2.915786,-1.875847 -6.372857,-2.978214 -10.08801,-2.978214 -10.317161,0 -18.7097524,8.39259 -18.7097524,18.709752 0,1.710646 0.2382874,3.384748 0.6889781,5.007844 -3.9816081,1.074197 -6.9255621,4.707128 -6.9255621,9.02447 0,5.159343 4.195534,9.354876 9.3548764,9.354876 h 20.268898 v 19.570024 c -2.426269,2.175038 -3.552995,5.428082 -2.959179,8.674272 0.673752,3.676326 3.570505,6.655301 7.209526,7.410512 0.657765,0.137033 1.318576,0.204028 1.974056,0.204028 2.149916,0 4.231316,-0.723237 5.913792,-2.092056 2.193311,-1.78906 3.453265,-4.434584 3.453265,-7.261298 0,-2.670646 -1.127489,-5.157819 -3.118292,-6.936982 V 62.47476 H 64.03236 c 2.098909,0 4.031854,-0.703442 5.595569,-1.875848 0.09516,0.09669 0.188802,0.184237 0.282443,0.280921 1.514229,1.556102 3.073375,3.157119 4.820562,3.157119 0.245138,0 0.494845,-0.03274 0.746836,-0.09973 2.119464,-0.565646 2.75972,-3.103065 3.378658,-5.555219 0.258842,-1.026234 0.742269,-2.93558 1.155657,-3.240101 0.478858,-0.229151 2.41637,0.316702 3.456309,0.608282 2.409519,0.67832 4.903545,1.381002 6.432999,-0.148454 1.530218,-1.529456 0.826774,-4.021958 0.148454,-6.433 -0.2931,-1.039938 -0.837431,-2.971362 -0.617416,-3.44413 0.312135,-0.424045 2.221479,-0.907472 3.247715,-1.166313 2.454437,-0.618938 4.991093,-1.259194 5.556742,-3.38018 0.550419,-2.056276 -1.282795,-3.841529 -3.055866,-5.567402 z M 41.459001,93.819839 c -1.486061,1.208186 -3.361146,1.654308 -5.287239,1.255385 -2.40876,-0.500936 -4.326478,-2.478036 -4.774125,-4.919532 -0.434703,-2.379068 0.458304,-4.67287 2.392011,-6.133807 l 0.618938,-0.46744 V 78.06622 h 3.118292 v -3.118292 h -3.118292 v -3.118292 h 3.118292 v -3.118292 h -3.118292 v -3.118292 h 3.118292 V 62.47476 h -3.118292 v -3.118292 h 3.118292 v -3.118292 h -3.118292 v -3.118292 h 3.118292 V 50.001592 H 34.408586 V 46.8833 c 0,-1.719779 1.398511,-3.118292 3.118292,-3.118292 1.719781,0 3.118292,1.398513 3.118292,3.118292 v 36.671145 l 0.618938,0.46744 c 1.588838,1.200572 2.499354,3.007902 2.499354,4.958357 0,1.884984 -0.840477,3.649682 -2.304461,4.839597 z M 64.03236,59.356468 H 43.763462 V 46.8833 c 0,-3.43956 -2.797022,-6.236584 -6.236584,-6.236584 -3.439562,0 -6.236584,2.797024 -6.236584,6.236584 V 59.356468 H 11.021396 c -3.4395618,0 -6.2365844,-2.797022 -6.2365844,-6.236584 0,-3.43956 2.7970226,-6.236584 6.2365844,-6.236584 3.439561,0 6.236584,2.797024 6.236584,6.236584 h 3.118292 c 0,-4.909634 -3.802702,-8.938444 -8.617175,-9.317572 -0.481904,-1.518797 -0.737701,-3.097736 -0.737701,-4.714742 0,-8.597381 6.994079,-15.591458 15.59146,-15.591458 8.597381,0 15.59146,6.994077 15.59146,15.591458 h 3.118292 c 0,-1.73196 -0.255797,-3.402257 -0.696591,-4.995662 1.671057,-0.799366 3.499704,-1.240922 5.374029,-1.240922 6.401787,0 11.687505,4.850254 12.388664,11.068566 -4.375963,0.779573 -7.711226,4.603593 -7.711226,9.200332 h 3.118292 c 0,-3.43956 2.797022,-6.236584 6.236584,-6.236584 3.439562,0 6.236584,2.797024 6.236584,6.236584 0,3.439562 -2.797022,6.236584 -6.236584,6.236584 z M 65.519943,43.894431 C 64.804321,36.059874 58.27159,29.893329 50.287058,29.746399 51.760176,21.742073 58.847896,15.70038 67.150652,15.70038 c 9.456129,0 17.150606,7.694477 17.150606,17.150606 0,7.499584 -4.793156,14.017089 -11.810835,16.300994 -1.29193,-2.747539 -3.877309,-4.76042 -6.97048,-5.257549 z M 91.91732,41.535156 c -2.203968,0.556512 -4.287651,1.082572 -5.177612,2.619638 -0.902903,1.559146 -0.313657,3.648158 0.309089,5.858979 0.291578,1.032326 0.832103,2.95309 0.70268,3.342877 -0.486471,0.218493 -2.40419,-0.318224 -3.436516,-0.607519 -2.21082,-0.622745 -4.299832,-1.211993 -5.858978,-0.309089 -1.538591,0.889962 -2.064651,2.973646 -2.621162,5.179898 -0.266455,1.056686 -0.763586,3.024651 -1.078764,3.297198 -0.519207,-0.06243 -1.880416,-1.460939 -2.611265,-2.21082 -0.120286,-0.123333 -0.239049,-0.23372 -0.358573,-0.357051 1.010247,-1.493675 1.601017,-3.294154 1.601017,-5.229383 0,-0.327358 -0.0175,-0.651674 -0.05024,-0.969898 8.360614,-2.663033 14.082559,-10.393291 14.082559,-19.299 0,-11.17591 -9.092988,-20.268898 -20.268898,-20.268898 -10.101713,0 -18.669403,7.575715 -20.051927,17.455889 -1.230264,0.232957 -2.427791,0.597622 -3.565937,1.11683 -1.055925,-2.243557 -2.541226,-4.238167 -4.353124,-5.889431 0.516164,-0.41567 2.235943,-0.85418 3.205842,-1.098559 2.203968,-0.557271 4.287652,-1.082571 5.177612,-2.61964 0.902906,-1.559146 0.313658,-3.648158 -0.309087,-5.858978 -0.291579,-1.032324 -0.832104,-2.953089 -0.702681,-3.342875 0.484949,-0.22763 2.404189,0.317463 3.436515,0.607519 2.212343,0.624266 4.299833,1.213514 5.858979,0.309089 1.53859,-0.889963 2.06465,-2.973646 2.621162,-5.1798981 0.266456,-1.0566858 0.763586,-3.0246516 1.078763,-3.2971981 0.519209,0.062426 1.880416,1.4609393 2.611266,2.2108203 1.551533,1.593404 3.155596,3.2431459 4.994139,3.2431459 1.838545,0 3.442606,-1.6482179 4.99414,-3.2431459 0.73085,-0.749881 2.092058,-2.1483941 2.477276,-2.2420325 0.449169,0.3022366 0.944776,2.2717245 1.212755,3.3284103 0.557272,2.2047301 1.082569,4.2876511 2.619638,5.1783741 1.560668,0.902905 3.648158,0.313657 5.858978,-0.309087 1.032326,-0.29158 2.950045,-0.827536 3.342877,-0.702682 0.223062,0.484949 -0.317463,2.40419 -0.607519,3.436516 -0.624268,2.21082 -1.211992,4.299832 -0.309089,5.858978 0.890723,1.538591 2.973644,2.063888 5.179898,2.622684 1.056686,0.266457 3.024652,0.763586 3.297196,1.077242 -0.06243,0.519209 -1.460937,1.880416 -2.21082,2.611265 -1.593404,1.551534 -3.241622,3.155597 -3.241622,4.99414 0,1.838545 1.648218,3.442606 3.243146,4.994139 0.749881,0.73085 2.148392,2.092059 2.242033,2.477277 -0.306805,0.45069 -2.276291,0.946298 -3.333741,1.214276 z m 0,0"
     id="path4"
     inkscape:connector-curvature="0"
     style="stroke-width:0.19489326" />
</svg>
