<?xml version="1.0" encoding="UTF-8" standalone="no"?>
<!-- Generator: Adobe Illustrator 19.0.0, SVG Export Plug-In . SVG Version: 6.00 Build 0)  -->

<svg
   xmlns:dc="http://purl.org/dc/elements/1.1/"
   xmlns:cc="http://creativecommons.org/ns#"
   xmlns:rdf="http://www.w3.org/1999/02/22-rdf-syntax-ns#"
   xmlns:svg="http://www.w3.org/2000/svg"
   xmlns="http://www.w3.org/2000/svg"
   xmlns:sodipodi="http://sodipodi.sourceforge.net/DTD/sodipodi-0.dtd"
   xmlns:inkscape="http://www.inkscape.org/namespaces/inkscape"
   version="1.1"
   id="Capa_1"
   x="0px"
   y="0px"
   viewBox="0 0 100 100"
   xml:space="preserve"
   sodipodi:docname="hogar.svg"
   width="100"
   height="100"
   inkscape:version="0.92.5 (2060ec1f9f, 2020-04-08)"><metadata
   id="metadata49"><rdf:RDF><cc:Work
       rdf:about=""><dc:format>image/svg+xml</dc:format><dc:type
         rdf:resource="http://purl.org/dc/dcmitype/StillImage" /><dc:title /></cc:Work></rdf:RDF></metadata><defs
   id="defs47" /><sodipodi:namedview
   pagecolor="#ffffff"
   bordercolor="#666666"
   borderopacity="1"
   objecttolerance="10"
   gridtolerance="10"
   guidetolerance="10"
   inkscape:pageopacity="0"
   inkscape:pageshadow="2"
   inkscape:window-width="1920"
   inkscape:window-height="1031"
   id="namedview45"
   showgrid="false"
   inkscape:zoom="3.6875"
   inkscape:cx="11.756861"
   inkscape:cy="47.796717"
   inkscape:window-x="0"
   inkscape:window-y="0"
   inkscape:window-maximized="1"
   inkscape:current-layer="Capa_1" />

<g
   id="g33"
   transform="translate(0,1.3555139)"><g
     transform="matrix(0.18728712,0,0,0.18728712,1.6454622,0.6989049)"
     id="g6">
	<g
   id="g4">
		<path
   inkscape:connector-curvature="0"
   id="path2"
   d="M 421.936,211.786 V 450.319 H 331.872 V 347.155 c 0,-9.045 -7.331,-16.375 -16.375,-16.375 H 200.324 c -9.045,0 -16.375,7.331 -16.375,16.375 V 450.319 H 94.431 V 211.786 h -32.75 v 254.908 c 0,9.045 7.331,16.375 16.375,16.375 h 122.269 c 9.045,0 16.375,-7.331 16.375,-16.375 V 363.531 h 82.422 v 103.164 c 0,9.045 7.331,16.375 16.375,16.375 h 122.815 c 9.045,0 16.375,-7.331 16.375,-16.375 V 211.786 Z" />
	</g>
</g><g
     transform="matrix(0.18728712,0,0,0.18728712,2.0544652,0.6989049)"
     id="g12">
	<g
   id="g10">
		<path
   inkscape:connector-curvature="0"
   id="path8"
   d="M 506.815,255.508 269.373,33.351 c -6.25,-5.857 -15.966,-5.895 -22.27,-0.104 L 5.295,255.405 c -6.659,6.119 -7.096,16.474 -0.977,23.133 3.226,3.521 7.636,5.3 12.063,5.3 3.957,0 7.931,-1.43 11.075,-4.318 L 258.085,67.635 484.44,279.422 c 6.616,6.184 16.965,5.83 23.144,-0.77 6.174,-6.605 5.835,-16.965 -0.769,-23.144 z" />
	</g>
</g></g>
<g
   id="g14"
   transform="translate(0,-412)">
</g>
<g
   id="g16"
   transform="translate(0,-412)">
</g>
<g
   id="g18"
   transform="translate(0,-412)">
</g>
<g
   id="g20"
   transform="translate(0,-412)">
</g>
<g
   id="g22"
   transform="translate(0,-412)">
</g>
<g
   id="g24"
   transform="translate(0,-412)">
</g>
<g
   id="g26"
   transform="translate(0,-412)">
</g>
<g
   id="g28"
   transform="translate(0,-412)">
</g>
<g
   id="g30"
   transform="translate(0,-412)">
</g>
<g
   id="g32"
   transform="translate(0,-412)">
</g>
<g
   id="g34"
   transform="translate(0,-412)">
</g>
<g
   id="g36"
   transform="translate(0,-412)">
</g>
<g
   id="g38"
   transform="translate(0,-412)">
</g>
<g
   id="g40"
   transform="translate(0,-412)">
</g>
<g
   id="g42"
   transform="translate(0,-412)">
</g>
</svg>